HIERARCHY
ROOT Hips
{
	OFFSET 0.000000 0.000000 0.000000
	CHANNELS 6 Xposition Yposition Zposition Zrotation Yrotation Xrotation 
	JOINT LowerBack
	{
		OFFSET 0.000000 0.000000 0.000000
		CHANNELS 3 Zrotation Yrotation Xrotation
		JOINT Spine
		{
			OFFSET 0.028270 2.035590 -0.193380
			CHANNELS 3 Zrotation Yrotation Xrotation
			JOINT Spine1
			{
				OFFSET 0.056720 2.048850 -0.042750
				CHANNELS 3 Zrotation Yrotation Xrotation
				JOINT Neck
				{
					OFFSET 0.000000 0.000000 0.000000
					CHANNELS 3 Zrotation Yrotation Xrotation
					JOINT Neck1
					{
						OFFSET -0.054170 1.746240 0.172020
						CHANNELS 3 Zrotation Yrotation Xrotation
						JOINT Head
						{
							OFFSET 0.104070 1.761360 -0.123970
							CHANNELS 3 Zrotation Yrotation Xrotation
							End Site
							{
								OFFSET 0.000000 0.000000 0.000000
							}
						}
					}
				}
				JOINT LeftShoulder
				{
					OFFSET 0.000000 0.000000 0.000000
					CHANNELS 3 Zrotation Yrotation Xrotation
					JOINT LeftArm
					{
						OFFSET 3.362410 1.200890 -0.311210
						CHANNELS 3 Zrotation Yrotation Xrotation
						JOINT LeftForeArm
						{
							OFFSET 4.983000 -0.000000 -0.000000
							CHANNELS 3 Zrotation Yrotation Xrotation
							JOINT LeftHand
							{
								OFFSET 3.483560 -0.000000 -0.000000
								CHANNELS 3 Zrotation Yrotation Xrotation
								JOINT LeftFingerBase
								{
									OFFSET 0.000000 0.000000 0.000000
									CHANNELS 3 Zrotation Yrotation Xrotation
									JOINT LeftHandIndex1
									{
										OFFSET 0.715260 -0.000000 -0.000000
										CHANNELS 3 Zrotation Yrotation Xrotation
										End Site
										{
											OFFSET 0.000000 0.000000 0.000000
										}
									}
								}
								JOINT LThumb
								{
									OFFSET 0.000000 0.000000 0.000000
									CHANNELS 3 Zrotation Yrotation Xrotation
									End Site
									{
										OFFSET 0.000000 0.000000 0.000000
									}
								}
							}
						}
					}
				}
				JOINT RightShoulder
				{
					OFFSET 0.000000 0.000000 0.000000
					CHANNELS 3 Zrotation Yrotation Xrotation
					JOINT RightArm
					{
						OFFSET -3.136600 1.374050 -0.404650
						CHANNELS 3 Zrotation Yrotation Xrotation
						JOINT RightForeArm
						{
							OFFSET -5.241900 -0.000000 -0.000000
							CHANNELS 3 Zrotation Yrotation Xrotation
							JOINT RightHand
							{
								OFFSET -3.444170 -0.000000 -0.000000
								CHANNELS 3 Zrotation Yrotation Xrotation
								JOINT RightFingerBase
								{
									OFFSET 0.000000 0.000000 0.000000
									CHANNELS 3 Zrotation Yrotation Xrotation
									JOINT RightHandIndex1
									{
										OFFSET -0.622530 -0.000000 -0.000000
										CHANNELS 3 Zrotation Yrotation Xrotation
										End Site
										{
											OFFSET 0.000000 0.000000 0.000000
										}
									}
								}
								JOINT RThumb
								{
									OFFSET 0.000000 0.000000 0.000000
									CHANNELS 3 Zrotation Yrotation Xrotation
									End Site
									{
										OFFSET 0.000000 0.000000 0.000000
									}
								}
							}
						}
					}
				}
			}
		}
	}
}
}
MOTION
Frames: 12
Frame Time: 0.008333
15.892428 16.561646 1.789467 83.197173 -87.566336 -34.175312 2.003691 -1.564368 -6.542230 -0.390412 -1.979448 -4.461183 -5.965922 -2.199025 0.919976 9.463094 -4.387861 -9.167277 -3.427914 -0.234291 -0.749969 0.000000 0.000000 0.000000 -0.683145 3.478852 3.464279 -70.273101 3.005201 10.273477 -3.031809 -18.628005 0.009364 0.234123 -6.062656 -0.016527 -0.082893 0.081270 -0.000000 0.000000 0.000000 0.000000 0.000000 0.000000 0.000000 16.324052 -2.934625 3.402395 72.828180 3.353012 -16.161583 2.312339 6.934248 0.003063 -5.238591 9.930139 -0.471805 0.102082 -0.168208 0.000000 0.000000 0.000000 0.000000 0.000000 0.000000 0.000000 
15.873844 16.451867 1.788105 84.131577 -87.391013 -34.304489 1.887755 -1.604327 -6.688699 -0.426854 -2.018656 -4.501483 -5.992354 -2.241691 0.923047 9.604712 -4.531956 -9.360618 -3.464028 -0.234576 -0.818814 0.000000 0.000000 0.000000 -0.962252 3.604414 3.507786 -70.090853 3.079972 9.851397 -2.994345 -18.629316 0.008922 0.341188 -6.010682 -0.021938 -0.081100 0.082651 -0.000000 0.000000 0.000000 0.000000 0.000000 0.000000 0.000000 16.719161 -3.075401 3.447752 72.610675 3.188855 -15.934763 2.279545 7.181951 0.002829 -5.167890 9.902663 -0.464204 0.100461 -0.169456 0.000000 0.000000 0.000000 0.000000 0.000000 0.000000 0.000000 
15.855353 16.328964 1.786656 84.366340 -87.201146 -33.743077 1.782355 -1.651716 -6.858790 -0.459223 -2.067076 -4.545312 -6.015117 -2.293607 0.928263 9.739093 -4.683310 -9.554371 -3.495823 -0.234539 -0.887284 0.000000 0.000000 0.000000 -1.232676 3.731747 3.549427 -69.911934 3.110129 9.455712 -2.957275 -18.652948 0.008501 0.466118 -5.974863 -0.028445 -0.079545 0.084377 -0.000000 0.000000 0.000000 0.000000 0.000000 0.000000 0.000000 17.083834 -3.226170 3.489301 72.401483 3.074178 -15.720877 2.247287 7.436911 0.002598 -5.114793 9.896348 -0.459203 0.099038 -0.170952 0.000000 0.000000 0.000000 0.000000 0.000000 0.000000 0.000000 
15.836974 16.192889 1.785162 83.983067 -86.996284 -32.577094 1.688779 -1.706716 -7.052883 -0.486795 -2.124958 -4.592779 -6.033368 -2.355044 0.935533 9.863271 -4.835106 -9.746143 -3.522846 -0.234172 -0.954536 0.000000 0.000000 0.000000 -1.492931 3.860579 3.589668 -69.740557 3.095605 9.085998 -2.921480 -18.681892 0.008104 0.605498 -5.956431 -0.035651 -0.078243 0.086419 -0.000000 0.000000 0.000000 0.000000 0.000000 0.000000 0.000000 17.411309 -3.380742 3.527080 72.204718 3.000635 -15.526288 2.215767 7.687783 0.002362 -5.083053 9.905483 -0.456804 0.097857 -0.172603 0.000000 0.000000 0.000000 0.000000 0.000000 0.000000 0.000000 
15.818713 16.044079 1.783699 83.084032 -86.774941 -30.916972 1.607501 -1.768929 -7.267818 -0.509217 -2.191806 -4.642972 -6.046648 -2.425479 0.945621 9.975852 -4.986476 -9.935535 -3.545040 -0.233468 -1.020379 0.000000 0.000000 0.000000 -1.741007 3.992436 3.628632 -69.579640 3.027629 8.742828 -2.888145 -18.694509 0.007741 0.752231 -5.960000 -0.043354 -0.077190 0.088760 -0.000000 0.000000 0.000000 0.000000 0.000000 0.000000 0.000000 17.699729 -3.538783 3.561205 72.021613 2.970544 -15.353666 2.185394 7.918526 0.002122 -5.070874 9.926647 -0.456702 0.096916 -0.174332 0.000000 0.000000 0.000000 0.000000 0.000000 0.000000 0.000000 
15.800339 15.883294 1.782303 81.783987 -86.541481 -28.883182 1.541868 -1.836421 -7.505901 -0.526615 -2.266167 -4.700859 -6.058750 -2.503843 0.942739 10.073249 -5.089557 -10.099084 -3.566917 -0.233110 -1.077773 0.000000 0.000000 0.000000 -1.983034 4.054525 3.669752 -69.427093 2.999021 8.361111 -2.855314 -18.733679 0.007357 0.900972 -5.959639 -0.051158 -0.076129 0.091131 -0.000000 0.000000 0.000000 0.000000 0.000000 0.000000 0.000000 17.953480 -3.651771 3.596361 71.855275 2.925143 -15.243131 2.156021 8.144663 0.001867 -5.065358 9.950359 -0.457302 0.096009 -0.176114 0.000000 0.000000 0.000000 0.000000 0.000000 0.000000 0.000000 
15.781892 15.711927 1.781031 80.182102 -86.294087 -26.582131 1.490890 -1.908539 -7.756721 -0.538865 -2.346959 -4.760286 -6.068286 -2.588699 0.940922 10.159831 -5.175932 -10.254069 -3.587607 -0.232781 -1.131992 0.000000 0.000000 0.000000 -2.215545 4.113479 3.710714 -69.279706 2.910208 8.004996 -2.826213 -18.724872 0.007011 1.046141 -5.979305 -0.059062 -0.075245 0.093674 -0.000000 0.000000 0.000000 0.000000 0.000000 0.000000 0.000000 18.182150 -3.752349 3.628232 71.693188 2.916611 -15.155417 2.128791 8.332518 0.001624 -5.066632 9.978133 -0.458602 0.095214 -0.177836 0.000000 0.000000 0.000000 0.000000 0.000000 0.000000 0.000000 
15.763084 15.531670 1.779959 78.371414 -86.037353 -24.113540 1.456597 -1.983202 -8.016212 -0.546245 -2.432277 -4.821378 -6.077982 -2.678210 0.936815 10.237569 -5.230795 -10.394581 -3.610452 -0.232830 -1.181379 0.000000 0.000000 0.000000 -2.442442 4.156775 3.752465 -69.131239 2.769422 7.664012 -2.800756 -18.663119 0.006687 1.184317 -6.011009 -0.066663 -0.074453 0.096279 -0.000000 0.000000 0.000000 0.000000 0.000000 0.000000 0.000000 18.399437 -3.825278 3.657574 71.526501 2.936745 -15.088912 2.104205 8.479833 0.001393 -5.067684 10.006415 -0.460003 0.094441 -0.179450 0.000000 0.000000 0.000000 0.000000 0.000000 0.000000 0.000000 
15.743607 15.344610 1.779096 76.438652 -85.774580 -21.569188 1.439425 -2.057986 -8.277871 -0.549582 -2.519661 -4.883660 -6.090575 -2.769960 0.927218 10.309305 -5.244171 -10.515957 -3.638858 -0.233594 -1.224763 0.000000 0.000000 0.000000 -2.668068 4.169416 3.795696 -68.974292 2.582811 7.324806 -2.778604 -18.545390 0.006380 1.310713 -6.049636 -0.073864 -0.073643 0.098860 -0.000000 0.000000 0.000000 0.000000 0.000000 0.000000 0.000000 18.621923 -3.860264 3.685715 71.344653 2.986062 -15.049880 2.082160 8.579454 0.001180 -5.059941 10.035691 -0.460703 0.093566 -0.180967 0.000000 0.000000 0.000000 0.000000 0.000000 0.000000 0.000000 
15.723244 15.153126 1.778496 74.446094 -85.509733 -19.017987 1.439320 -2.130849 -8.534638 -0.549675 -2.606958 -4.945674 -6.108310 -2.861774 0.911982 10.378875 -5.213552 -10.618331 -3.675603 -0.235292 -1.262413 0.000000 0.000000 0.000000 -2.896388 4.153348 3.840616 -68.801073 2.334663 6.989137 -2.759813 -18.357887 0.006082 1.424370 -6.093123 -0.080565 -0.072772 0.101381 -0.000000 0.000000 0.000000 0.000000 0.000000 0.000000 0.000000 18.865961 -3.854249 3.712926 71.135532 3.076827 -15.033496 2.062624 8.621875 0.000989 -5.040758 10.068656 -0.460403 0.092532 -0.182394 0.000000 0.000000 0.000000 0.000000 0.000000 0.000000 0.000000 
15.701603 14.959750 1.778180 72.450608 -85.246549 -16.520730 1.455440 -2.199542 -8.779546 -0.547687 -2.691716 -5.007018 -6.133582 -2.951261 0.887151 10.448687 -5.130160 -10.697683 -3.723617 -0.238210 -1.293435 0.000000 0.000000 0.000000 -3.132545 4.090315 3.888155 -68.603898 2.033664 6.641202 -2.743397 -18.105910 0.005780 1.525493 -6.135319 -0.086567 -0.071735 0.103792 -0.000000 0.000000 0.000000 0.000000 0.000000 0.000000 0.000000 19.145842 -3.797721 3.741313 70.889716 3.212463 -15.054015 2.044694 8.600996 0.000812 -5.006142 10.109630 -0.459105 0.091233 -0.183808 0.000000 0.000000 0.000000 0.000000 0.000000 0.000000 0.000000 
15.678324 14.767054 1.778157 70.486477 -84.988512 -14.116603 1.486835 -2.262475 -9.005106 -0.544418 -2.772044 -5.066110 -6.167475 -3.036513 0.852498 10.521193 -4.993973 -10.755307 -3.784414 -0.242436 -1.318526 0.000000 0.000000 0.000000 -3.380331 3.982157 3.938754 -68.376933 1.663577 6.281852 -2.728954 -17.780953 0.005462 1.617103 -6.174791 -0.092170 -0.070509 0.106123 -0.000000 0.000000 0.000000 0.000000 0.000000 0.000000 0.000000 19.471707 -3.689861 3.771811 70.599313 3.409063 -15.113687 2.027437 8.507073 0.000642 -4.959611 10.163755 -0.457205 0.089649 -0.185267 0.000000 0.000000 0.000000 0.000000 0.000000 0.000000 0.000000 
